<?xml version="1.0" encoding="utf-8"?>
<!-- Generator: Adobe Illustrator 25.0.0, SVG Export Plug-In . SVG Version: 6.00 Build 0)  -->
<svg version="1.1" id="Layer_1" xmlns="http://www.w3.org/2000/svg" xmlns:xlink="http://www.w3.org/1999/xlink" x="0px" y="0px"
	 viewBox="0 0 692 161.4" style="enable-background:new 0 0 692 161.4;" xml:space="preserve">
<style type="text/css">
	.st0{fill:none;stroke:url(#SVGID_1_);stroke-width:5;stroke-linecap:round;stroke-linejoin:round;}
	.st1{fill:#20A02E;}
	.st2{fill:url(#SVGID_2_);}
	.st3{fill:url(#SVGID_3_);}
	.st4{fill:url(#SVGID_4_);}
	.st5{fill:url(#SVGID_5_);}
	.st6{fill:url(#SVGID_6_);}
	.st7{fill:url(#SVGID_7_);}
	.st8{fill:url(#SVGID_8_);}
	.st9{fill:url(#SVGID_9_);}
	.st10{fill:url(#SVGID_10_);}
</style>
<linearGradient id="SVGID_1_" gradientUnits="userSpaceOnUse" x1="27.7634" y1="80.1001" x2="180.5168" y2="80.1001">
	<stop  offset="0" style="stop-color:#2B3E89"/>
	<stop  offset="1" style="stop-color:#1AAEE9"/>
</linearGradient>
<path class="st0" d="M127.5,32.7H178v117.3H30.3V32.7h50.3 M127.5,32.7 M80.5,32.7 M154,148.7l24-24.4 M54.3,148.7l-24-24.4
	 M154,32.7L178,57 M54.3,32.7L30.3,57 M104.1,10.3c-12.4,0-22.4,10-22.4,22.4s10,22.4,22.4,22.4s22.4-10,22.4-22.4
	S116.5,10.3,104.1,10.3z M104.1,23.5c-5.1,0-9.2,4.1-9.2,9.2s4.1,9.2,9.2,9.2s9.2-4.1,9.2-9.2S109.2,23.5,104.1,23.5z M91.3,51v41.4
	l12.9-9.5l13.9,9.5V51 M56.7,73.1h7.5 M144,73.1h7.5 M96.1,105.7h16.1 M63.4,120.5h81.6 M67.8,135.3h72.8"/>
<g>
	<path class="st1" d="M240,134.8v2.5h-17.6V96.7h2.6v38.1H240z"/>
	<path class="st1" d="M264.1,134.9v2.4h-18.8V96.7h18.4v2.4h-15.8v16.3h14.7v2.4h-14.7v17H264.1z"/>
	<path class="st1" d="M286.3,126.9h-13.5l-2.7,10.4h-2.8L278,96.7h3l10.7,40.6h-2.8L286.3,126.9z M285.6,124.5l-4.2-16.7
		c-0.7-2.8-1.4-5.9-1.9-7.7h-0.1c-0.5,1.9-1.2,4.9-1.9,7.7l-4.2,16.7H285.6z"/>
	<path class="st1" d="M305.2,120.8h-5.4v16.5h-2.6V96.7h8.5c7.5,0,11.5,4.2,11.5,11.7c0,7.1-3.4,11.5-9.2,12.3l9.9,16.7h-3
		L305.2,120.8z M299.8,118.3h6.5c5.2,0,8.2-3.4,8.2-9.8c0-6.3-3-9.3-8.8-9.3h-5.9V118.3z"/>
	<path class="st1" d="M346.2,96.7v40.6h-2.7l-13.1-27.9c-1-2.2-2.6-5.8-3.3-7.6l-0.1,0.1c0.1,2.4,0.2,5.9,0.2,8.4v27h-2.6V96.7h2.7
		l12.9,27.7c1.1,2.3,2.6,5.8,3.4,7.8l0.1-0.1c-0.1-2.3-0.3-5.9-0.3-8.5V96.7H346.2z"/>
	<path class="st1" d="M404.2,96.7l-8.9,40.6h-3l-5.5-25.1c-0.7-3-1.5-8-1.9-11h-0.1c-0.4,3-1.2,8-1.9,11l-5.5,25.1h-3l-8.9-40.6h2.8
		l5.6,27.5c0.6,2.8,1.5,7.3,1.9,9.3h0.1l1.9-9.6l5.5-26.5h2.9l5.5,26.2c0.7,3.7,1.5,7.8,2,10h0.1c0.4-2.1,1.3-6.7,1.9-9.6l5.6-27.2
		H404.2z"/>
	<path class="st1" d="M408.6,125.3v-16.5c0-8.1,4.3-12.8,11.3-12.8c7,0,11.3,4.6,11.3,12.8v16.5c0,8-4.3,12.7-11.3,12.7
		C412.9,138,408.6,133.3,408.6,125.3z M428.5,125.3v-16.5c0-6.7-3.1-10.2-8.7-10.2c-5.5,0-8.6,3.5-8.6,10.2v16.5
		c0,6.6,3.1,10.2,8.6,10.2C425.4,135.5,428.5,131.9,428.5,125.3z"/>
	<path class="st1" d="M447.4,120.8H442v16.5h-2.6V96.7h8.5c7.5,0,11.5,4.2,11.5,11.7c0,7.1-3.4,11.5-9.2,12.3l9.9,16.7h-3
		L447.4,120.8z M442,118.3h6.5c5.2,0,8.2-3.4,8.2-9.8c0-6.3-3-9.3-8.8-9.3H442V118.3z"/>
	<path class="st1" d="M466.8,96.7h8.9c7.3,0,11.4,4.1,11.4,11.6v17.1c0,7.5-4.3,11.9-11.4,11.9h-8.9V96.7z M475.7,134.8
		c5.6,0,8.8-3.3,8.8-9.5v-16.9c0-6.2-3.2-9.2-8.8-9.2h-6.3v35.6H475.7z"/>
	<path class="st1" d="M492.9,127.4h2.6c0.3,5.2,3.3,8.1,8,8.1c5.1,0,7.8-3.3,7.8-7.8c0-10.1-17.9-10.4-17.9-22.1
		c0-5.5,4.1-9.6,10-9.6c6,0,9.8,4.2,10.2,10.4h-2.7c-0.3-5.2-3.2-7.8-7.4-7.8c-4.5,0-7.4,2.8-7.4,7c0,9.9,17.9,10,17.9,22.1
		c0,5.5-3.7,10.3-10.4,10.3C497.1,138,493.2,133.7,492.9,127.4z"/>
	<path class="st1" d="M553.9,134.9v2.4H535V96.7h18.4v2.4h-15.8v16.3h14.7v2.4h-14.7v17H553.9z"/>
	<path class="st1" d="M576,126.9h-13.5l-2.7,10.4H557l10.7-40.6h3l10.7,40.6h-2.8L576,126.9z M575.3,124.5l-4.2-16.7
		c-0.7-2.8-1.4-5.9-1.9-7.7h-0.1c-0.5,1.9-1.2,4.9-1.9,7.7l-4.2,16.7H575.3z"/>
	<path class="st1" d="M584.1,127.4h2.6c0.3,5.2,3.3,8.1,8,8.1c5.1,0,7.8-3.3,7.8-7.8c0-10.1-17.9-10.4-17.9-22.1
		c0-5.5,4.1-9.6,10-9.6c6,0,9.8,4.2,10.2,10.4H602c-0.3-5.2-3.2-7.8-7.4-7.8c-4.5,0-7.4,2.8-7.4,7c0,9.9,17.9,10,17.9,22.1
		c0,5.5-3.7,10.3-10.4,10.3C588.3,138,584.4,133.7,584.1,127.4z"/>
	<path class="st1" d="M614.4,96.7v40.6h-2.6V96.7H614.4z"/>
	<path class="st1" d="M641.4,134.8v2.5h-17.6V96.7h2.6v38.1H641.4z"/>
	<path class="st1" d="M648.8,122.4l-10.3-25.7h2.8l6.5,16.8c0.7,2,1.5,3.9,2.3,5.8c0.7-1.9,1.5-3.9,2.2-5.9l6.5-16.7h2.8l-10.3,25.7
		v14.9h-2.6V122.4z"/>
	<path class="st1" d="M665.9,135.6c0-1.3,0.9-2.2,2.2-2.2c1.3,0,2.2,0.9,2.2,2.2c0,1.3-0.9,2.2-2.2,2.2
		C666.8,137.9,665.9,137,665.9,135.6z M666.8,96.7h2.6v32.9h-2.6V96.7z"/>
</g>
<g>
	<g>
		<path d="M253.6,30.7h-18.9v11.6h16.9v8.8h-16.9v11.5h18.9v8.9h-29.1V21.8h29.1V30.7z"/>
		<path d="M298,71.6l-3.7-10.4h-20.9l-3.7,10.4h-10.9l18.7-49.8h12.7l18.7,49.8H298z M276.5,52.8h14.8l-7.4-20.6L276.5,52.8z"/>
		<path d="M311.5,57.7l10.1-2.1c1.5,6,5.3,8.6,10.7,8.6c5.1,0,8-2.3,8-6.1c0-4.4-5-5.9-10.7-7.5c-7.5-2.2-16.3-4.9-16.3-15
			c0-8.9,7.2-14.7,17.7-14.7c8.9,0,17.5,3.7,19.7,13.4l-9.2,2.1c-1.7-4.9-4.7-7.2-9.9-7.2c-4.7,0-8,2.3-8,5.8c0,4,4.7,5.2,10.1,6.6
			c7.7,2.1,17.2,4.8,17.2,15.8c0,9.2-7.4,15.2-18.7,15.2C321.4,72.5,313,67.2,311.5,57.7z"/>
		<path d="M397.1,21.8l-16.7,26.1v23.7h-10.3V48.1l-16.8-26.3h11.2l10.7,17.4L386,21.8H397.1z"/>
		<path d="M461.8,21.8h10.6l-13,49.8h-13.6L436,40.2l-9.6,31.3h-13.6l-13-49.8h10.6l10,38.9l11.3-38.9h8.8l11.2,38.9L461.8,21.8z"/>
		<path d="M476.5,46.6c0-15.3,10.6-25.8,25.6-25.8s25.6,10.5,25.6,25.8c0,15.3-10.6,25.9-25.6,25.9S476.5,62,476.5,46.6z
			 M517.5,46.6c0-9.9-6.4-16.5-15.4-16.5c-9,0-15.4,6.6-15.4,16.5c0,9.9,6.4,16.5,15.4,16.5C511,63.2,517.5,56.6,517.5,46.6z"/>
		<path d="M563.2,71.6l-11.9-18.2h-4.6v18.2h-10.3V21.8h16.5c7.1,0,11.4,1.2,14.6,3.8c3,2.4,4.7,6.3,4.7,11.8
			c0,6.2-2.4,11.9-7.4,14.6c-0.7,0.4-1.4,0.6-2.1,0.9l12.9,18.7H563.2z M546.6,30.2v15.3h4.8c2.6,0,5.9-0.1,7.8-1.5
			c1.8-1.2,2.7-3.2,2.7-6.1c0-2.9-0.9-4.9-2.5-6.1c-2-1.4-5.2-1.6-8-1.6H546.6z"/>
		<path d="M583.1,71.6V21.8h15.1c8.5,0,14.1,1.6,18.3,4.6c5.8,4.2,8.8,11.2,8.8,20.2c0,9-3,16-8.8,20.3c-4.2,3-9.8,4.6-18.3,4.6
			H583.1z M593.3,62.6h4.9c4.8,0,8.5-1,11.2-2.9c3.8-2.7,5.7-7.2,5.7-13.1c0-5.9-1.8-10.4-5.7-13c-2.7-1.9-6.4-3-11.2-3h-4.9V62.6z"
			/>
		<path d="M630.4,57.7l10.1-2.1c1.5,6,5.3,8.6,10.7,8.6c5.1,0,8-2.3,8-6.1c0-4.4-5-5.9-10.7-7.5c-7.5-2.2-16.3-4.9-16.3-15
			c0-8.9,7.2-14.7,17.7-14.7c8.9,0,17.5,3.7,19.7,13.4l-9.2,2.1c-1.7-4.9-4.7-7.2-9.9-7.2c-4.7,0-8,2.3-8,5.8c0,4,4.7,5.2,10.1,6.6
			c7.7,2.1,17.2,4.8,17.2,15.8c0,9.2-7.4,15.2-18.7,15.2C640.4,72.5,631.9,67.2,630.4,57.7z"/>
	</g>
	<g>
		<linearGradient id="SVGID_2_" gradientUnits="userSpaceOnUse" x1="224.5239" y1="46.6821" x2="669.8564" y2="46.6821">
			<stop  offset="0" style="stop-color:#126A3C"/>
			<stop  offset="0.9946" style="stop-color:#97CC41"/>
		</linearGradient>
		<path class="st2" d="M253.6,30.7h-18.9v11.6h16.9v8.8h-16.9v11.5h18.9v8.9h-29.1V21.8h29.1V30.7z"/>
		<linearGradient id="SVGID_3_" gradientUnits="userSpaceOnUse" x1="224.5239" y1="46.6821" x2="669.8564" y2="46.6821">
			<stop  offset="0" style="stop-color:#126A3C"/>
			<stop  offset="0.9946" style="stop-color:#97CC41"/>
		</linearGradient>
		<path class="st3" d="M298,71.6l-3.7-10.4h-20.9l-3.7,10.4h-10.9l18.7-49.8h12.7l18.7,49.8H298z M276.5,52.8h14.8l-7.4-20.6
			L276.5,52.8z"/>
		<linearGradient id="SVGID_4_" gradientUnits="userSpaceOnUse" x1="224.5239" y1="46.6821" x2="669.8564" y2="46.6821">
			<stop  offset="0" style="stop-color:#126A3C"/>
			<stop  offset="0.9946" style="stop-color:#97CC41"/>
		</linearGradient>
		<path class="st4" d="M311.5,57.7l10.1-2.1c1.5,6,5.3,8.6,10.7,8.6c5.1,0,8-2.3,8-6.1c0-4.4-5-5.9-10.7-7.5
			c-7.5-2.2-16.3-4.9-16.3-15c0-8.9,7.2-14.7,17.7-14.7c8.9,0,17.5,3.7,19.7,13.4l-9.2,2.1c-1.7-4.9-4.7-7.2-9.9-7.2
			c-4.7,0-8,2.3-8,5.8c0,4,4.7,5.2,10.1,6.6c7.7,2.1,17.2,4.8,17.2,15.8c0,9.2-7.4,15.2-18.7,15.2C321.4,72.5,313,67.2,311.5,57.7z"
			/>
		<linearGradient id="SVGID_5_" gradientUnits="userSpaceOnUse" x1="224.5239" y1="46.6821" x2="669.8564" y2="46.6821">
			<stop  offset="0" style="stop-color:#126A3C"/>
			<stop  offset="0.9946" style="stop-color:#97CC41"/>
		</linearGradient>
		<path class="st5" d="M397.1,21.8l-16.7,26.1v23.7h-10.3V48.1l-16.8-26.3h11.2l10.7,17.4L386,21.8H397.1z"/>
		<linearGradient id="SVGID_6_" gradientUnits="userSpaceOnUse" x1="224.5239" y1="46.6821" x2="669.8564" y2="46.6821">
			<stop  offset="0" style="stop-color:#126A3C"/>
			<stop  offset="0.9946" style="stop-color:#97CC41"/>
		</linearGradient>
		<path class="st6" d="M461.8,21.8h10.6l-13,49.8h-13.6L436,40.2l-9.6,31.3h-13.6l-13-49.8h10.6l10,38.9l11.3-38.9h8.8l11.2,38.9
			L461.8,21.8z"/>
		<linearGradient id="SVGID_7_" gradientUnits="userSpaceOnUse" x1="224.5239" y1="46.6821" x2="669.8564" y2="46.6821">
			<stop  offset="0" style="stop-color:#126A3C"/>
			<stop  offset="0.9946" style="stop-color:#97CC41"/>
		</linearGradient>
		<path class="st7" d="M476.5,46.6c0-15.3,10.6-25.8,25.6-25.8s25.6,10.5,25.6,25.8c0,15.3-10.6,25.9-25.6,25.9S476.5,62,476.5,46.6
			z M517.5,46.6c0-9.9-6.4-16.5-15.4-16.5c-9,0-15.4,6.6-15.4,16.5c0,9.9,6.4,16.5,15.4,16.5C511,63.2,517.5,56.6,517.5,46.6z"/>
		<linearGradient id="SVGID_8_" gradientUnits="userSpaceOnUse" x1="224.5239" y1="46.6821" x2="669.8564" y2="46.6821">
			<stop  offset="0" style="stop-color:#126A3C"/>
			<stop  offset="0.9946" style="stop-color:#97CC41"/>
		</linearGradient>
		<path class="st8" d="M563.2,71.6l-11.9-18.2h-4.6v18.2h-10.3V21.8h16.5c7.1,0,11.4,1.2,14.6,3.8c3,2.4,4.7,6.3,4.7,11.8
			c0,6.2-2.4,11.9-7.4,14.6c-0.7,0.4-1.4,0.6-2.1,0.9l12.9,18.7H563.2z M546.6,30.2v15.3h4.8c2.6,0,5.9-0.1,7.8-1.5
			c1.8-1.2,2.7-3.2,2.7-6.1c0-2.9-0.9-4.9-2.5-6.1c-2-1.4-5.2-1.6-8-1.6H546.6z"/>
		<linearGradient id="SVGID_9_" gradientUnits="userSpaceOnUse" x1="224.5239" y1="46.6821" x2="669.8564" y2="46.6821">
			<stop  offset="0" style="stop-color:#126A3C"/>
			<stop  offset="0.9946" style="stop-color:#97CC41"/>
		</linearGradient>
		<path class="st9" d="M583.1,71.6V21.8h15.1c8.5,0,14.1,1.6,18.3,4.6c5.8,4.2,8.8,11.2,8.8,20.2c0,9-3,16-8.8,20.3
			c-4.2,3-9.8,4.6-18.3,4.6H583.1z M593.3,62.6h4.9c4.8,0,8.5-1,11.2-2.9c3.8-2.7,5.7-7.2,5.7-13.1c0-5.9-1.8-10.4-5.7-13
			c-2.7-1.9-6.4-3-11.2-3h-4.9V62.6z"/>
		<linearGradient id="SVGID_10_" gradientUnits="userSpaceOnUse" x1="224.5239" y1="46.6821" x2="669.8564" y2="46.6821">
			<stop  offset="0" style="stop-color:#126A3C"/>
			<stop  offset="0.9946" style="stop-color:#97CC41"/>
		</linearGradient>
		<path class="st10" d="M630.4,57.7l10.1-2.1c1.5,6,5.3,8.6,10.7,8.6c5.1,0,8-2.3,8-6.1c0-4.4-5-5.9-10.7-7.5
			c-7.5-2.2-16.3-4.9-16.3-15c0-8.9,7.2-14.7,17.7-14.7c8.9,0,17.5,3.7,19.7,13.4l-9.2,2.1c-1.7-4.9-4.7-7.2-9.9-7.2
			c-4.7,0-8,2.3-8,5.8c0,4,4.7,5.2,10.1,6.6c7.7,2.1,17.2,4.8,17.2,15.8c0,9.2-7.4,15.2-18.7,15.2C640.4,72.5,631.9,67.2,630.4,57.7
			z"/>
	</g>
</g>
</svg>
